# xmcd
#
# Track frame offsets:
#	150
#	25477
#	63530
#	90150
#	129197
#	165062
#	198230
#	239055
#	276250
#	308662
#
# Disc length: 4443 seconds
# Revision: 0
# Processed by: cddbd v1.5.2PL0 Copyright (c) Steve Scherf et al.
# Submitted via: dBpowerAMP V12.0
#
DISCID=7a11590a
DTITLE=Various Artist - Hon vong phu
DYEAR=1991
DGENRE=Country
TTITLE0=Hoang Oanh and Trung Chinh - Hon Vong Phu 1
TTITLE1=Hoang Oanh - Hon Vong Phu 2
TTITLE2=Hoang Oanh and Trung Chinh - Hon Vong Phu 3
TTITLE3=Hoang Oanh - Trau cau
TTITLE4=Hoang Oanh - Thien thai
TTITLE5=Hoang Oanh - Huyen Tran cong chua
TTITLE6=Hoang Oanh - Khoi tinh Truong Chi
TTITLE7=Hoang Oanh - Thieu phu Nam Xuong
TTITLE8=Hoang Oanh - Giot mua thu
TTITLE9=Hoang Oanh - Dem Me Linh
EXTD=
EXTT0=
EXTT1=
EXTT2=
EXTT3=
EXTT4=
EXTT5=
EXTT6=
EXTT7=
EXTT8=
EXTT9=
PLAYORDER=
